<svg width="24" height="24" viewBox="0 0 24 24" fill="none" xmlns="http://www.w3.org/2000/svg">
<g opacity="0.5">
<path d="M20 12.3889C20 12.665 19.7761 12.8889 19.5 12.8889H12.8889V19.5C12.8889 19.7761 12.665 20 12.3889 20H11.6111C11.335 20 11.1111 19.7761 11.1111 19.5V12.8889H4.5C4.22386 12.8889 4 12.665 4 12.3889V11.6111C4 11.335 4.22386 11.1111 4.5 11.1111H11.1111V4.5C11.1111 4.22386 11.335 4 11.6111 4H12.3889C12.665 4 12.8889 4.22386 12.8889 4.5V11.1111H19.5C19.7761 11.1111 20 11.335 20 11.6111V12.3889Z" fill="#CECEDF"/>
</g>
</svg>
