<svg width="24" height="24" viewBox="0 0 24 24" fill="none" xmlns="http://www.w3.org/2000/svg">
<rect opacity="0.6" x="11" y="2" width="2" height="4" rx="0.5" fill="black"/>
<rect opacity="0.45" x="22" y="11" width="2" height="4" rx="0.5" transform="rotate(90 22 11)" fill="black"/>
<rect opacity="0.75" x="6" y="11" width="2" height="4" rx="0.5" transform="rotate(90 6 11)" fill="black"/>
<rect opacity="0.65" x="6.13379" y="3.83974" width="2" height="4" rx="0.5" transform="rotate(-30 6.13379 3.83974)" fill="black"/>
<rect opacity="0.5" x="20.1602" y="6.13397" width="2" height="4" rx="0.5" transform="rotate(60 20.1602 6.13397)" fill="black"/>
<rect opacity="0.7" x="2.83984" y="7.86608" width="2" height="4" rx="0.5" transform="rotate(-60 2.83984 7.86608)" fill="black"/>
<rect opacity="0.55" x="16.1338" y="2.83976" width="2" height="4" rx="0.5" transform="rotate(30 16.1338 2.83976)" fill="black"/>
<rect opacity="0.9" width="2" height="4" rx="0.5" transform="matrix(1 0 0 -1 11 21.8661)" fill="black"/>
<rect opacity="0.85" width="2" height="4" rx="0.5" transform="matrix(0.866025 0.5 0.5 -0.866025 6.13379 20.0263)" fill="black"/>
<rect width="2" height="4" rx="0.5" transform="matrix(0.5 -0.866025 -0.866025 -0.5 20.1602 17.7321)" fill="black"/>
<rect opacity="0.8" width="2" height="4" rx="0.5" transform="matrix(0.5 0.866025 0.866025 -0.5 2.83984 16)" fill="black"/>
<rect width="2" height="4" rx="0.5" transform="matrix(0.866025 -0.5 -0.5 -0.866025 16.1338 21.0263)" fill="black"/>
</svg>
