<?xml version="1.0" encoding="UTF-8" standalone="no"?>
<!DOCTYPE svg PUBLIC "-//W3C//DTD SVG 1.1//EN" "http://www.w3.org/Graphics/SVG/1.1/DTD/svg11.dtd">
<svg version="1.1" xmlns="http://www.w3.org/2000/svg" xmlns:xlink="http://www.w3.org/1999/xlink" preserveAspectRatio="xMidYMid meet" viewBox="0 0 24 24" width="24" height="24"><defs><path d="M5 3C3.9 3 3 3.9 3 5C3 6.4 3 17.6 3 19C3 20.1 3.9 21 5 21C6.4 21 17.6 21 19 21C20.1 21 21 20.1 21 19C21 17.6 21 6.4 21 5C21 3.9 20.1 3 19 3C16.2 3 6.4 3 5 3ZM5 19L5 5L19 5L19 19L5 19ZM16.58 7.58L9.99 14.17L7.41 11.6L5.99 13.01L9.99 17L17.99 9L16.58 7.58Z" id="i1oADpByNW"></path></defs><g><g><g><use xlink:href="#i1oADpByNW" opacity="1" fill="#ffffff" fill-opacity="1"></use><g><use xlink:href="#i1oADpByNW" opacity="1" fill-opacity="0" stroke="#000000" stroke-width="1" stroke-opacity="0"></use></g></g></g></g></svg>