<?xml version="1.0" encoding="UTF-8" standalone="no"?>
<!DOCTYPE svg PUBLIC "-//W3C//DTD SVG 1.1//EN" "http://www.w3.org/Graphics/SVG/1.1/DTD/svg11.dtd">
<svg version="1.1" xmlns="http://www.w3.org/2000/svg" xmlns:xlink="http://www.w3.org/1999/xlink" preserveAspectRatio="xMidYMid meet" viewBox="0 0 24 24" width="24" height="24"><defs><path d="M19.7 5.19C18.98 5.91 15.38 9.5 8.9 15.98C6.26 13.34 4.79 11.88 4.5 11.58C4.25 11.34 3.84 11.34 3.59 11.58C3.5 11.68 2.78 12.4 2.69 12.49C2.44 12.74 2.44 13.14 2.69 13.39C3.18 13.89 7.13 17.82 7.62 18.32C7.62 18.32 7.89 18.59 8.01 18.7C8.52 19.21 9.28 19.22 9.84 18.65C9.87 18.63 9.98 18.52 10.18 18.32C16.98 11.53 20.76 7.75 21.51 7C21.76 6.75 21.76 6.34 21.51 6.09C21.45 6.03 21.15 5.73 20.61 5.19C20.17 5.02 19.87 5.02 19.7 5.19Z" id="apXVCr3iq"></path></defs><g><g><g><use xlink:href="#apXVCr3iq" opacity="1" fill="#ffffff" fill-opacity="1"></use><g><use xlink:href="#apXVCr3iq" opacity="1" fill-opacity="0" stroke="#000000" stroke-width="1" stroke-opacity="0"></use></g></g></g></g></svg>