<?xml version="1.0" encoding="UTF-8" standalone="no"?>
<!DOCTYPE svg PUBLIC "-//W3C//DTD SVG 1.1//EN" "http://www.w3.org/Graphics/SVG/1.1/DTD/svg11.dtd">
<svg version="1.1" xmlns="http://www.w3.org/2000/svg" xmlns:xlink="http://www.w3.org/1999/xlink" preserveAspectRatio="xMidYMid meet" viewBox="0 0 24 24" width="24" height="24"><defs><path d="M13.42 1.58C12.67 0.83 11.35 0.82 10.59 1.58C9.69 2.48 2.49 9.68 1.59 10.58C0.81 11.36 0.81 12.62 1.59 13.4C2.49 14.3 9.69 21.5 10.59 22.4C10.98 22.79 11.49 22.98 12 22.98C12.51 22.98 13.02 22.79 13.41 22.4C14.31 21.5 21.5 14.31 22.4 13.41C23.19 12.65 23.2 11.39 22.43 10.59C20.63 8.79 14.32 2.48 13.42 1.58ZM3.01 11.99L12.01 2.99L21.01 11.99L12.01 20.99L3.01 11.99ZM8 15L10 15L10 12L14 12L14 14.5L17.5 11L14 7.5L14 10C11 10 9.33 10 9 10C8.45 10 8 10.45 8 11C8 11.53 8 12.87 8 15Z" id="a2m1akSyzH"></path></defs><g><g><g><use xlink:href="#a2m1akSyzH" opacity="1" fill="#ffffff" fill-opacity="1"></use><g><use xlink:href="#a2m1akSyzH" opacity="1" fill-opacity="0" stroke="#000000" stroke-width="1" stroke-opacity="0"></use></g></g></g></g></svg>