<?xml version="1.0" encoding="UTF-8" standalone="no"?>
<!DOCTYPE svg PUBLIC "-//W3C//DTD SVG 1.1//EN" "http://www.w3.org/Graphics/SVG/1.1/DTD/svg11.dtd">
<svg version="1.1" xmlns="http://www.w3.org/2000/svg" xmlns:xlink="http://www.w3.org/1999/xlink" preserveAspectRatio="xMidYMid meet" viewBox="0 0 24 24" width="24" height="24"><defs><path d="M2 12C2 17.52 6.47 22 11.99 22C17.52 22 22 17.52 22 12C22 6.48 17.52 2 11.99 2C6.47 2 2 6.48 2 12ZM15.97 8C15.65 6.75 15.19 5.55 14.59 4.44C16.43 5.07 17.96 6.35 18.92 8C18.33 8 16.27 8 15.97 8ZM13.91 8C13.53 8 10.47 8 10.09 8C10.52 6.57 11.17 5.24 12 4.04C12.83 5.24 13.48 6.57 13.91 8ZM4 12C4 11.31 4.1 10.64 4.26 10C4.6 10 7.3 10 7.64 10C7.56 10.66 7.5 11.32 7.5 12C7.5 12.68 7.56 13.34 7.64 14C7.41 14 6.29 14 4.26 14C4.09 13.13 4 12.46 4 12ZM8.03 16C8.35 17.25 8.81 18.45 9.41 19.56C7.57 18.93 6.04 17.66 5.08 16C5.67 16 7.74 16 8.03 16ZM5.08 8C6.04 6.34 7.57 5.07 9.41 4.44C8.81 5.55 8.35 6.75 8.03 8C7.44 8 5.38 8 5.08 8ZM10.09 16C10.47 16 13.53 16 13.91 16C13.48 17.43 12.83 18.76 12 19.96C11.17 18.76 10.52 17.43 10.09 16ZM9.66 14C9.57 13.34 9.5 12.68 9.5 12C9.5 11.32 9.57 10.65 9.66 10C10.13 10 13.87 10 14.34 10C14.43 10.65 14.5 11.32 14.5 12C14.5 12.68 14.43 13.34 14.34 14C13.4 14 10.13 14 9.66 14ZM15.97 16C16.27 16 18.63 16 18.92 16C17.96 17.65 16.43 18.93 14.59 19.56C15.19 18.45 15.65 17.25 15.97 16ZM16.5 12C16.5 11.32 16.44 10.66 16.36 10C16.7 10 19.4 10 19.74 10C19.9 10.64 20 11.31 20 12C20 12.69 19.9 13.36 19.74 14C19.51 14 18.39 14 16.36 14C16.45 13.12 16.5 12.45 16.5 12Z" id="c9hmFoiIv"></path></defs><g><g><g><use xlink:href="#c9hmFoiIv" opacity="1" fill="#ffffff" fill-opacity="1"></use><g><use xlink:href="#c9hmFoiIv" opacity="1" fill-opacity="0" stroke="#000000" stroke-width="1" stroke-opacity="0"></use></g></g></g></g></svg>