<?xml version="1.0" encoding="UTF-8" standalone="no"?>
<!DOCTYPE svg PUBLIC "-//W3C//DTD SVG 1.1//EN" "http://www.w3.org/Graphics/SVG/1.1/DTD/svg11.dtd">
<svg version="1.1" xmlns="http://www.w3.org/2000/svg" xmlns:xlink="http://www.w3.org/1999/xlink" preserveAspectRatio="xMidYMid meet" viewBox="0 0 24 24" width="24" height="24"><defs><path d="M1.39 14.12C0.62 14.9 0.62 16.17 1.39 16.95C1.96 17.52 6.48 22.04 7.05 22.61C7.83 23.38 9.1 23.38 9.88 22.61C11.15 21.33 21.33 11.15 22.61 9.88C23.38 9.1 23.38 7.83 22.61 7.05C22.04 6.48 17.52 1.96 16.95 1.39C16.17 0.62 14.9 0.62 14.12 1.39C11.58 3.94 2.67 12.85 1.39 14.12ZM8.46 21.19L2.81 15.54L4.22 14.12L7.05 16.95L8.46 15.54L5.64 12.71L7.05 11.29L9.88 14.12L11.29 12.71L8.46 9.88L9.88 8.46L12.71 11.29L14.12 9.88L11.29 7.05L12.71 5.64L15.54 8.46L16.95 7.05L14.12 4.22L15.54 2.81L21.19 8.46L8.46 21.19Z" id="j1mtNKTfO"></path></defs><g><g><g><use xlink:href="#j1mtNKTfO" opacity="1" fill="#ffffff" fill-opacity="1"></use><g><use xlink:href="#j1mtNKTfO" opacity="1" fill-opacity="0" stroke="#000000" stroke-width="1" stroke-opacity="0"></use></g></g></g></g></svg>