<?xml version="1.0" encoding="UTF-8" standalone="no"?>
<!DOCTYPE svg PUBLIC "-//W3C//DTD SVG 1.1//EN" "http://www.w3.org/Graphics/SVG/1.1/DTD/svg11.dtd">
<svg version="1.1" xmlns="http://www.w3.org/2000/svg" xmlns:xlink="http://www.w3.org/1999/xlink" preserveAspectRatio="xMidYMid meet" viewBox="0 0 24 24" width="24" height="24"><defs><path d="M19.5 12C19.5 11.66 19.47 11.34 19.43 11.02C19.64 10.86 21.33 9.53 21.54 9.37C21.73 9.22 21.78 8.95 21.66 8.73C21.46 8.38 19.86 5.62 19.66 5.27C19.57 5.11 19.4 5.02 19.22 5.02C19.16 5.02 19.1 5.03 19.05 5.05C18.8 5.15 16.81 5.95 16.56 6.05C16.04 5.65 15.48 5.32 14.87 5.07C14.83 4.81 14.53 2.69 14.49 2.42C14.46 2.18 14.25 2 14 2C13.6 2 10.4 2 10 2C9.75 2 9.54 2.18 9.51 2.42C9.47 2.69 9.17 4.81 9.13 5.07C8.52 5.32 7.96 5.66 7.44 6.05C7.19 5.95 5.2 5.15 4.95 5.05C4.89 5.03 4.83 5.02 4.77 5.02C4.6 5.02 4.43 5.11 4.34 5.27C4.14 5.62 2.54 8.38 2.34 8.73C2.21 8.95 2.27 9.22 2.46 9.37C2.67 9.54 4.36 10.86 4.57 11.02C4.53 11.34 4.5 11.67 4.5 12C4.5 12.33 4.53 12.66 4.57 12.98C4.36 13.15 2.67 14.47 2.46 14.63C2.27 14.78 2.22 15.05 2.34 15.27C2.54 15.62 4.14 18.38 4.34 18.73C4.43 18.89 4.6 18.98 4.78 18.98C4.84 18.98 4.9 18.97 4.95 18.95C5.2 18.85 7.19 18.05 7.44 17.95C7.96 18.35 8.52 18.68 9.13 18.93C9.17 19.2 9.47 21.32 9.51 21.58C9.54 21.82 9.75 22 10 22C10.4 22 13.6 22 14 22C14.25 22 14.46 21.82 14.49 21.58C14.53 21.32 14.83 19.2 14.87 18.93C15.48 18.68 16.04 18.34 16.56 17.95C16.81 18.05 18.8 18.85 19.05 18.95C19.11 18.97 19.17 18.98 19.23 18.98C19.4 18.98 19.57 18.89 19.66 18.73C19.86 18.38 21.46 15.62 21.66 15.27C21.78 15.05 21.73 14.78 21.54 14.63C21.4 14.52 20.7 13.97 19.43 12.98C19.48 12.55 19.5 12.23 19.5 12ZM17.5 12C17.5 12.21 17.48 12.43 17.45 12.73C17.44 12.81 17.39 13.18 17.31 13.86L18.2 14.56L19.28 15.4L18.58 16.61L17.31 16.1L16.27 15.68C15.73 16.09 15.43 16.31 15.37 16.36C14.94 16.68 14.53 16.92 14.12 17.09C14.05 17.12 13.7 17.26 13.06 17.52L12.9 18.65L12.7 20L11.3 20L11.11 18.65L10.95 17.52C10.31 17.26 9.96 17.12 9.89 17.09C9.46 16.91 9.06 16.68 8.66 16.38C8.6 16.33 8.3 16.1 7.75 15.68L6.69 16.11L5.42 16.62L4.72 15.41L5.8 14.57L6.69 13.87C6.61 13.19 6.56 12.82 6.55 12.74C6.52 12.43 6.5 12.2 6.5 12C6.5 11.8 6.52 11.57 6.55 11.27C6.56 11.19 6.61 10.82 6.69 10.14L5.8 9.44L4.72 8.6L5.42 7.39L6.69 7.9L7.73 8.32C8.27 7.91 8.57 7.69 8.63 7.64C9.06 7.32 9.47 7.08 9.88 6.91C9.95 6.88 10.3 6.74 10.94 6.48L11.1 5.35L11.3 4L12.69 4L12.88 5.35L13.04 6.48C13.68 6.74 14.03 6.88 14.1 6.91C14.53 7.09 14.93 7.32 15.33 7.62C15.39 7.67 15.69 7.9 16.24 8.32L17.3 7.89L18.57 7.38L19.27 8.59L18.2 9.44L17.31 10.14L17.45 11.27C17.48 11.62 17.5 11.86 17.5 12ZM8 12C8 14.21 9.79 16 12 16C14.21 16 16 14.21 16 12C16 9.79 14.21 8 12 8C9.79 8 8 9.79 8 12ZM10 12C10 10.9 10.9 10 12 10C13.1 10 14 10.9 14 12C14 13.1 13.1 14 12 14C10.9 14 10 13.1 10 12Z" id="agHmOE9Jx"></path></defs><g><g><g><use xlink:href="#agHmOE9Jx" opacity="1" fill="#ffffff" fill-opacity="1"></use><g><use xlink:href="#agHmOE9Jx" opacity="1" fill-opacity="0" stroke="#000000" stroke-width="1" stroke-opacity="0"></use></g></g></g></g></svg>