<?xml version="1.0" encoding="UTF-8" standalone="no"?>
<!DOCTYPE svg PUBLIC "-//W3C//DTD SVG 1.1//EN" "http://www.w3.org/Graphics/SVG/1.1/DTD/svg11.dtd">
<svg version="1.1" xmlns="http://www.w3.org/2000/svg" xmlns:xlink="http://www.w3.org/1999/xlink" preserveAspectRatio="xMidYMid meet" viewBox="0 0 24 24" width="24" height="24"><defs><path d="M17.39 10.43C17.41 10.53 17.51 11.03 17.69 11.93C18.61 12 19.12 12.03 19.22 12.04C20.78 12.14 22 13.45 22 15C22 16.65 20.65 18 19 18C17.7 18 7.3 18 6 18C3.79 18 2 16.21 2 14C2 11.95 3.53 10.24 5.56 10.03C5.63 10.02 5.99 9.99 6.63 9.92C6.93 9.35 7.1 9.03 7.13 8.97C8.08 7.14 9.94 6 12 6C14.62 6 16.88 7.86 17.39 10.43ZM5.35 8.04C2.34 8.36 0 10.91 0 14C0 17.31 2.69 20 6 20C7.3 20 17.7 20 19 20C21.76 20 24 17.76 24 15C24 12.36 21.95 10.22 19.35 10.04C18.67 6.59 15.64 4 12 4C9.11 4 6.6 5.64 5.35 8.04Z" id="b4VUN9wKIy"></path></defs><g><g><g><use xlink:href="#b4VUN9wKIy" opacity="1" fill="#ffffff" fill-opacity="1"></use><g><use xlink:href="#b4VUN9wKIy" opacity="1" fill-opacity="0" stroke="#000000" stroke-width="1" stroke-opacity="0"></use></g></g></g></g></svg>